<svg xmlns="http://www.w3.org/2000/svg" viewBox="0 0 1200 630" fill="none">
  <!-- Background gradient -->
  <rect width="1200" height="630" fill="#EFF6FF"/>
  <rect width="1200" height="630" fill="url(#grad)" opacity="0.5"/>
  <defs>
    <linearGradient id="grad" x1="0" y1="0" x2="1200" y2="630">
      <stop offset="0%" stop-color="#DBEAFE"/>
      <stop offset="100%" stop-color="#EDE9FE"/>
    </linearGradient>
  </defs>

  <!-- Logo icon -->
  <circle cx="600" cy="200" r="80" fill="#2563EB"/>
  <rect x="565" y="155" width="55" height="70" rx="4" fill="white"/>
  <path d="M600 155L620 175H610C607.24 175 605 172.76 605 170V155Z" fill="#BFDBFE"/>
  <rect x="575" y="180" width="35" height="3" rx="1.5" fill="#2563EB" opacity="0.5"/>
  <rect x="575" y="190" width="28" height="3" rx="1.5" fill="#2563EB" opacity="0.35"/>
  <rect x="575" y="200" width="32" height="3" rx="1.5" fill="#2563EB" opacity="0.2"/>
  <circle cx="630" cy="230" r="22" fill="#10B981"/>
  <path d="M621 230L627 236L639 224" stroke="white" stroke-width="4" stroke-linecap="round" stroke-linejoin="round"/>

  <!-- Title -->
  <text x="600" y="340" text-anchor="middle" font-family="system-ui, -apple-system, sans-serif" font-size="48" font-weight="700" fill="#1E293B">ATS Resume Analyzer</text>

  <!-- Subtitle -->
  <text x="600" y="390" text-anchor="middle" font-family="system-ui, -apple-system, sans-serif" font-size="24" fill="#64748B">Free ATS Score Checker &amp; AI Resume Optimizer</text>

  <!-- Features bar -->
  <rect x="200" y="440" width="800" height="60" rx="30" fill="white" opacity="0.8"/>
  <text x="600" y="477" text-anchor="middle" font-family="system-ui, -apple-system, sans-serif" font-size="20" fill="#2563EB" font-weight="600">10 ATS Checks  |  AI Optimization  |  FAANG Templates  |  Cover Letters</text>

  <!-- URL -->
  <text x="600" y="570" text-anchor="middle" font-family="system-ui, -apple-system, sans-serif" font-size="20" fill="#94A3B8">resumeoptimizer.online</text>
</svg>